# xmcd CD database file
#
# Track frame offsets:
#	150
#	22898
#	38825
#	57783
#	82177
#	107740
#	127782
#	147026
#	172142
#
# Disc length: 2588 seconds
#
# Revision: 0
# Processed by: cddbd v1.5.1PL0 Copyright (c) Steve Scherf et al.
# Submitted via: CDex 1.51
#
DISCID=6f0a1a09
DTITLE=Bartolo and Rieke - Blows Back and the dust
DYEAR=1998
DGENRE=Jazz
TTITLE0=der Pygmäe
TTITLE1=in der Höhe
TTITLE2=Sehnsucht
TTITLE3=die Fliege
TTITLE4=Hackman
TTITLE5=Jarman´s Garden
TTITLE6=Sunday
TTITLE7=Magnetik
TTITLE8=Wind
EXTD=YEAR: 1998
EXTT0=
EXTT1=
EXTT2=
EXTT3=
EXTT4=
EXTT5=
EXTT6=
EXTT7=
EXTT8=
PLAYORDER=
